# xmcd
#
# Track frame offsets: 
#        150
#        2720
#        21580
#        37814
#        58941
#        69531
#        86179
#        104809
#        122787
#        137862
#        153701
#        168354
#        192900
#
# Disc length: 4440 seconds
#
# Revision: 3
# Processed by: cddbd v1.5.2PL0 Copyright (c) Steve Scherf et al.
# Submitted via: ExactAudioCopyFreeDBPlugin 1.0
#
DISCID=be11560d
DTITLE=Shine - ￥b?o‥k?A
DYEAR=2003
DGENRE=pop
TTITLE0=￥b?o(Instrumental)
TTITLE1=￥b|‥|~
TTITLE2=A23a|O?c-?(featuring ?A?S?n)
TTITLE3=°O‥|o?§Q‥E
TTITLE4=3·Ad(featuring ?A?S?n)
TTITLE5=?@¯o|Ua?
TTITLE6=JR
TTITLE7=3IRtaooq
TTITLE8=A23a|O?c-?(feat R}?N|o)
TTITLE9=’Ma÷?o
TTITLE10=￥b|‥|~RMX(featuring Kary Cookies)
TTITLE11=?’(featuring R}?N|o)
TTITLE12=DATA
EXTD=
EXTT0=
EXTT1=
EXTT2=
EXTT3=
EXTT4=
EXTT5=
EXTT6=
EXTT7=
EXTT8=
EXTT9=
EXTT10=
EXTT11=
EXTT12=
PLAYORDER=
